<?xml version="1.0" standalone="no"?>
<!DOCTYPE svg PUBLIC "-//W3C//DTD SVG 20010904//EN"
 "http://www.w3.org/TR/2001/REC-SVG-20010904/DTD/svg10.dtd">
<svg version="1.0" xmlns="http://www.w3.org/2000/svg"
 width="96.000000pt" height="96.000000pt" viewBox="0 0 96.000000 96.000000"
 preserveAspectRatio="xMidYMid meet">

<g transform="translate(0.000000,96.000000) scale(0.100000,-0.100000)"
fill="#000000" stroke="none">
<path d="M361 944 c-169 -45 -301 -180 -346 -351 -55 -211 55 -452 249 -548
39 -20 85 -37 101 -38 l30 -2 0 75 0 75 -47 5 c-47 6 -88 33 -110 73 -8 16 -2
15 35 -7 24 -14 55 -26 69 -26 31 0 58 29 58 61 0 19 -12 30 -62 54 -131 63
-174 185 -102 290 19 28 23 44 18 70 -7 40 2 75 21 75 7 0 27 -12 45 -26 28
-24 34 -25 75 -15 24 6 62 11 85 11 23 0 61 -5 85 -11 41 -10 47 -9 75 15 18
14 38 26 45 26 19 0 28 -34 20 -79 -4 -26 -2 -41 5 -46 20 -12 50 -88 50 -125
0 -82 -67 -162 -165 -199 -38 -15 -49 -23 -46 -38 2 -10 6 -72 10 -138 l6
-120 30 2 c17 1 62 18 101 38 194 96 304 337 249 548 -67 259 -333 419 -584
351z m211 -35 c175 -37 310 -181 341 -364 31 -179 -72 -381 -238 -467 -35 -18
-66 -30 -68 -28 -3 3 -7 50 -9 106 l-3 101 42 17 c49 20 114 81 139 127 9 18
18 57 21 88 4 48 1 64 -25 112 -20 38 -28 65 -25 85 6 36 -20 102 -42 110 -9
4 -36 -6 -63 -22 -44 -27 -51 -28 -104 -20 -35 6 -81 6 -115 0 -54 -8 -61 -7
-105 20 -27 16 -54 26 -63 22 -22 -8 -48 -74 -42 -110 3 -20 -5 -47 -24 -84
-66 -123 -10 -259 134 -328 20 -10 37 -21 37 -26 0 -16 -38 -7 -76 18 -71 49
-144 69 -159 44 -3 -5 11 -27 32 -49 21 -21 57 -59 80 -84 32 -36 51 -48 82
-53 39 -6 41 -9 41 -40 0 -19 -5 -34 -11 -34 -28 0 -133 68 -178 115 -100 106
-146 250 -123 385 43 249 279 411 524 359z"/>
</g>
</svg>
